<?xml version="1.0" standalone="no"?>
<!DOCTYPE svg PUBLIC "-//W3C//DTD SVG 20010904//EN"
 "http://www.w3.org/TR/2001/REC-SVG-20010904/DTD/svg10.dtd">
<svg version="1.0" xmlns="http://www.w3.org/2000/svg"
 width="705.000000pt" height="705.000000pt" viewBox="0 0 705.000000 705.000000"
 preserveAspectRatio="xMidYMid meet">
<metadata>
Created by potrace 1.14, written by Peter Selinger 2001-2017
</metadata>
<g transform="translate(0.000000,705.000000) scale(0.100000,-0.100000)"
fill="#000000" stroke="none">
<path d="M3638 5819 c-16 -43 -31 -89 -33 -99 -2 -13 -68 -176 -92 -227 -15
-32 -28 -64 -29 -71 -1 -7 -7 -19 -13 -26 -6 -7 -27 -44 -47 -81 -80 -155
-231 -356 -342 -455 -96 -87 -108 -97 -138 -107 -30 -10 -378 -10 -424 0 -29
7 -94 18 -130 23 -14 2 -52 10 -85 20 -33 9 -67 18 -75 19 -30 7 -171 55 -203
68 -17 8 -72 32 -122 52 -49 21 -120 53 -157 71 l-67 34 18 -41 c10 -22 24
-46 30 -52 6 -6 11 -15 11 -21 0 -9 41 -104 60 -139 34 -60 123 -331 145 -437
0 -3 5 -23 9 -45 5 -22 10 -49 11 -60 2 -11 7 -47 11 -80 11 -76 11 -338 1
-388 -7 -31 -32 -62 -135 -165 -70 -70 -167 -155 -215 -189 -103 -72 -247
-159 -259 -156 -4 2 -8 0 -8 -5 0 -4 -27 -18 -60 -32 -33 -14 -60 -28 -60 -32
0 -5 -6 -8 -14 -8 -7 0 -40 -12 -72 -26 -33 -14 -90 -37 -129 -50 -38 -14 -78
-29 -87 -34 -10 -6 -24 -10 -32 -10 -8 0 -17 -4 -20 -8 -4 -8 159 -176 250
-259 51 -46 146 -129 189 -165 22 -18 42 -35 45 -38 3 -3 25 -21 50 -40 25
-19 50 -39 57 -45 19 -16 34 -27 98 -74 33 -25 77 -57 97 -73 20 -15 41 -28
47 -28 5 0 11 -3 13 -7 5 -11 66 -53 77 -53 5 0 11 -4 13 -8 4 -10 193 -128
194 -122 1 3 10 -2 20 -11 11 -9 39 -27 64 -40 25 -13 47 -26 50 -29 6 -6 222
-115 230 -115 3 -1 30 -13 60 -27 54 -25 267 -109 315 -124 192 -61 380 -108
475 -120 19 -2 46 -6 60 -9 173 -32 485 -36 699 -9 308 39 654 141 951 282 41
19 77 36 80 37 32 8 363 194 368 207 2 4 8 8 13 8 11 0 123 72 127 83 2 4 8 7
14 7 23 0 452 323 520 392 15 16 30 28 33 28 12 0 365 342 365 354 0 3 -3 5
-7 4 -14 -3 -68 15 -90 30 -13 8 -23 12 -23 9 0 -6 -47 9 -105 34 -16 7 -32
13 -35 14 -47 15 -268 123 -345 170 -22 13 -47 27 -55 31 -19 9 -185 134 -225
169 -161 142 -229 229 -235 302 -9 120 0 371 15 423 2 8 6 31 9 50 23 160 111
418 217 637 27 56 49 105 49 108 0 3 -30 -10 -67 -29 -231 -118 -573 -237
-695 -240 -16 -1 -28 -4 -28 -7 0 -3 -6 -6 -12 -6 -7 0 -49 -4 -93 -9 -78 -8
-205 -9 -313 -4 -67 4 -103 29 -232 159 -96 98 -145 155 -168 197 -7 13 -17
24 -22 24 -6 0 -10 4 -10 10 0 5 -20 40 -44 77 -62 97 -199 371 -199 399 0 8
-4 14 -9 14 -4 0 -8 5 -8 12 0 6 -14 50 -31 97 -48 136 -43 130 -61 80z"/>
</g>
</svg>
